<svg id="Capa_1" enable-background="new 0 0 512 512" height="512" viewBox="0 0 512 512" width="512" xmlns="http://www.w3.org/2000/svg"><g><g><path d="m475.011 245.84-.126-.106c-26.264-21.998-35.949-58.084-24.23-90.277l.057-.156c2.823-7.754-2.05-16.174-10.179-17.59-33.844-5.896-60.347-32.399-66.243-66.243-1.416-8.129-9.836-13.002-17.59-10.179l-.157.057c-32.193 11.719-68.278 2.034-90.277-24.23l-.106-.126c-5.297-6.324-15.023-6.324-20.32 0l-.106.126c-21.998 26.264-58.084 35.949-90.277 24.23l-.156-.057c-7.754-2.823-16.174 2.05-17.59 10.179-5.896 33.844-32.399 60.347-66.243 66.243-8.129 1.416-13.002 9.837-10.179 17.59l.057.157c11.719 32.193 2.034 68.278-24.23 90.277l-.126.106c-6.324 5.297-6.324 15.023 0 20.32l.126.106c26.264 21.998 35.95 58.084 24.23 90.277l-.057.156c-2.823 7.754 2.05 16.174 10.179 17.59 33.844 5.896 60.347 32.399 66.243 66.243 1.416 8.129 9.836 13.002 17.59 10.179l.157-.057c32.193-11.719 68.278-2.034 90.277 24.23l.106.126c5.297 6.324 15.023 6.324 20.32 0l.106-.126c21.998-26.264 58.084-35.95 90.277-24.23l.156.057c7.754 2.823 16.174-2.05 17.59-10.179 5.896-33.844 32.399-60.347 66.243-66.243 8.129-1.416 13.002-9.836 10.179-17.59l-.057-.157c-11.719-32.193-2.034-68.278 24.23-90.276l.126-.106c6.324-5.298 6.324-15.024 0-20.321z" fill="#fc7a6e"/><path d="m130.941 242.019-1.44-29.881c-.464.021-40.016 1.583-72.588-15.047-.968-12.781-11.638-22.852-24.667-22.852-13.667 0-24.746 11.079-24.746 24.746s11.079 24.746 24.746 24.746c2.925 0 5.73-.511 8.334-1.443 33.477 18.076 71.807 19.827 85.37 19.827 2.838 0 4.593-.076 4.991-.096z" fill="#f9f097"/><path d="m381.059 242.019 1.44-29.881c.464.021 40.016 1.583 72.588-15.047.968-12.781 11.638-22.852 24.667-22.852 13.667 0 24.746 11.079 24.746 24.746s-11.079 24.746-24.746 24.746c-2.925 0-5.73-.511-8.334-1.443-33.477 18.076-71.807 19.827-85.37 19.827-2.838 0-4.593-.076-4.991-.096z" fill="#f9f097"/><path d="m425.618 207.566c-23.039 5.367-42.792 4.587-43.119 4.572l-1.44 29.881c.398.02 2.153.095 4.991.095 8.211 0 25.505-.649 45.299-5.167-1.086-10.068-3.016-19.888-5.731-29.381z" fill="#f5c956"/><path d="m125.95 242.115c2.838 0 4.593-.076 4.991-.095l-1.44-29.881c-.327.015-20.08.794-43.119-4.573-2.715 9.494-4.645 19.313-5.731 29.383 19.794 4.517 37.088 5.166 45.299 5.166z" fill="#f5c956"/><circle cx="256" cy="256" fill="#f9f097" r="146.381"/><path d="m203.896 235.668c.007 13.4-13.628 24.269-30.455 24.277-16.826.008-30.472-10.847-30.479-24.247s13.628-24.269 30.455-24.278c16.827-.008 30.473 10.848 30.479 24.248z" fill="#ff9db0"/><path d="m308.104 235.615c.007 13.4 13.653 24.255 30.479 24.247s30.461-10.878 30.455-24.277c-.007-13.4-13.653-24.256-30.479-24.247-16.827.008-30.462 10.877-30.455 24.277z" fill="#ff9db0"/><path d="m285.859 224.658c-.009-18.457-13.381-20.184-29.875-20.176s-29.864 1.749-29.855 20.206 13.388 33.412 29.882 33.403c16.494-.008 29.858-14.977 29.848-33.433z" fill="#423e4f"/></g><g><path d="m256.529 196.981c-.185 0-.369 0-.549 0-9.995.005-17.987.687-24.508 3.998-8.528 4.33-12.849 12.308-12.843 23.712.011 22.117 16.274 40.901 37.367 40.9h.018c20.603-.01 37.355-18.375 37.344-40.937-.012-27.28-24.505-27.673-36.829-27.673zm-.522 53.61c-.003 0-.006 0-.01 0-12.87-.001-22.361-12.285-22.368-25.907-.004-7.975 3.013-9.507 4.634-10.33 4.095-2.079 10.938-2.369 17.725-2.373h.121c16.958 0 22.245 1.766 22.25 12.68.008 14.292-10.02 25.924-22.352 25.93z"/><path d="m191.173 187.271c-.004 0-.008 0-.012 0-12.159.006-21.998 9.851-21.991 22.013.002 4.141 3.359 7.496 7.5 7.496h.004c4.143-.002 7.499-3.362 7.496-7.504-.002-3.869 3.127-7.003 6.998-7.005h.004c3.866 0 6.999 3.128 7.001 6.998.002 4.141 3.359 7.496 7.5 7.496h.003c4.143-.002 7.499-3.361 7.497-7.503-.005-12.15-9.838-21.991-22-21.991z"/><path d="m320.802 187.206c-.004 0-.008 0-.012 0-12.16.006-21.997 9.851-21.991 22.012.002 4.142 3.359 7.497 7.5 7.497h.003c4.143-.002 7.499-3.362 7.497-7.503-.002-3.869 3.128-7.003 6.999-7.005h.004c3.866 0 6.999 3.128 7.001 6.998.002 4.142 3.359 7.497 7.5 7.497h.003c4.143-.002 7.499-3.362 7.497-7.503-.006-12.153-9.839-21.993-22.001-21.993z"/><path d="m479.754 166.738c-10.85 0-20.59 5.486-26.456 13.885.276-7.68 1.749-15.305 4.408-22.611l.053-.146c2.107-5.787 1.546-12.163-1.539-17.493-3.084-5.331-8.333-8.994-14.401-10.051-30.635-5.337-54.804-29.507-60.141-60.142-1.057-6.067-4.72-11.316-10.051-14.401-5.33-3.084-11.706-3.646-17.489-1.54l-.161.059c-29.124 10.602-62.062 1.761-81.961-21.997l-.106-.127c-3.954-4.721-9.752-7.428-15.91-7.428-6.157 0-11.956 2.707-15.911 7.429l-.104.125c-19.901 23.76-52.839 32.6-81.953 22.002l-.166-.061c-12.174-4.431-25.333 3.248-27.544 15.94-5.337 30.635-29.506 54.804-60.142 60.141-12.737 2.22-20.356 15.413-15.938 27.548l.056.154c2.657 7.3 4.129 14.922 4.404 22.601-5.866-8.399-15.606-13.886-26.457-13.886-17.78-.001-32.245 14.465-32.245 32.245s14.465 32.246 32.246 32.246c2.553 0 5.076-.299 7.537-.89.487.249.979.474 1.468.717-2.725 3.225-5.713 6.215-8.949 8.926l-.127.106c-9.891 8.285-9.914 23.515.001 31.821l.125.104c23.76 19.901 32.601 52.839 21.995 81.971l-.053.146c-4.415 12.127 3.197 25.325 15.939 27.545 30.635 5.337 54.804 29.506 60.141 60.142 1.057 6.067 4.721 11.316 10.051 14.4 9.04 5.232 17.512 1.5 17.651 1.482 29.123-10.603 62.06-1.762 81.951 21.985l.116.139c3.954 4.72 9.753 7.427 15.91 7.427 10.497 0 15.907-7.471 16.015-7.554 19.9-23.759 52.837-32.601 81.959-21.999l.159.058c12.151 4.424 25.33-3.223 27.544-15.939 5.337-30.635 29.507-54.804 60.142-60.142 12.75-2.22 20.351-15.425 15.941-27.54l-.059-.161c-10.602-29.123-1.761-62.061 21.998-81.96l.127-.107c9.891-8.285 9.913-23.516-.001-31.821l-.125-.104c-3.238-2.712-6.225-5.702-8.951-8.927.488-.243.98-.468 1.467-.717 20.271 4.87 39.782-10.55 39.782-31.354 0-17.78-14.465-32.246-32.246-32.246zm-447.508 49.492c-9.51 0-17.246-7.736-17.246-17.246s7.736-17.246 17.246-17.246c8.962 0 16.512 6.992 17.188 15.919.197 2.607 1.739 4.924 4.068 6.113 16.241 8.291 35.123 12.87 53.208 14.808-1.2 4.805-2.26 10.26-2.918 14.7-18.937-2.17-33.366-6.188-48.194-12.119-11.484-4.837-11.638-6.372-15.018-6.372-2.625.001-3.78 1.443-8.334 1.443zm424.241 21.031c6.711 8.802 13.809 14.413 13.708 14.329 2.745 2.299 2.749 6.518.001 8.819l-.127.107c-28.581 23.938-39.215 63.559-26.463 98.587l.059.161c1.226 3.368-.886 7.02-4.419 7.636-36.851 6.419-65.924 35.493-72.345 72.344-.615 3.526-4.263 5.647-7.633 4.42l-.16-.059c-35.035-12.753-74.654-2.118-98.593 26.464l-.104.125c-2.306 2.753-6.529 2.737-8.811.012l-.116-.139c-23.938-28.581-63.559-39.213-98.587-26.463l-.161.059c-3.369 1.225-7.02-.886-7.636-4.419-6.42-36.852-35.493-65.924-72.344-72.344-3.524-.614-5.649-4.256-4.415-7.646l.053-.146c12.753-35.032 2.119-74.653-26.463-98.594l-.125-.104c-2.744-2.299-2.75-6.518-.001-8.82l.127-.107c5.041-4.222 9.592-8.99 13.582-14.223 14.789 5.55 30.92 9.147 46.803 10.953-4.44 87.732 65.714 161.668 153.683 161.668 34.25 0 66.674-11.021 93.767-31.871 3.342-2.578 3.851-7.293 1.37-10.518-2.534-3.289-7.241-3.891-10.518-1.37-24.447 18.814-53.707 28.759-84.618 28.759-128.901 0-189.083-162.145-88.781-245.675 2.985-2.484 3.551-6.796 1.426-9.948-2.476-3.68-7.599-4.432-11.023-1.582-21.057 17.526-37.191 40.456-46.466 66.263-10.079-.939-24.275-3.118-38.289-8.144 2.054-14.435.535-29.143-4.475-42.906l-.056-.154c-1.226-3.368.886-7.021 4.419-7.637 36.851-6.42 65.924-35.493 72.345-72.344.624-3.582 4.458-5.575 7.792-4.362 35.032 12.752 74.654 2.119 98.593-26.463l.104-.125c2.299-2.745 6.519-2.749 8.82-.001l.106.127c23.938 28.581 63.558 39.216 98.588 26.464l.162-.059c3.369-1.225 7.019.886 7.635 4.419 6.42 36.852 35.493 65.924 72.345 72.345 3.59.625 5.563 4.456 4.362 7.792-5.01 13.761-6.528 28.469-4.474 42.904-14.013 5.026-28.208 7.204-38.288 8.144-31.536-87.963-134.176-127.554-216.51-84.144-4.469 2.356-5.377 8.382-1.795 11.95 2.264 2.26 5.818 2.894 8.796 1.324 92.479-48.75 203.544 18.867 203.544 122.931 0 33.234-11.926 65.393-33.583 90.551-2.702 3.14-2.348 7.875.791 10.577 3.134 2.693 7.876 2.341 10.577-.791 25.369-29.472 39.026-68.024 37.018-108.123 15.943-1.811 32.127-5.45 46.803-10.953zm17.459-22.035c-2.002-.716-4.217-.549-6.089.463-18.147 9.796-39.323 15.261-59.648 17.59-.653-4.404-1.737-9.973-2.918-14.7 17.996-1.929 36.965-6.515 53.208-14.808 2.329-1.189 3.871-3.506 4.068-6.113.676-8.927 8.226-15.919 17.188-15.919 9.51 0 17.246 7.736 17.246 17.246-.001 11.892-11.837 20.255-23.055 16.241z"/></g></g></svg>